<svg width="34" height="34" viewBox="0 0 34 34" fill="none" xmlns="http://www.w3.org/2000/svg">
<g filter="url(#filter0_d_180_277)">
<path d="M2 17C2 8.71573 8.71573 2 17 2V2C25.2843 2 32 8.71573 32 17V17C32 25.2843 25.2843 32 17 32V32C8.71573 32 2 25.2843 2 17V17Z" fill="#EEF8FF"/>
<circle cx="16.999" cy="21.2424" r="2.75758" transform="rotate(-90 16.999 21.2424)" fill="url(#paint0_linear_180_277)"/>
<path fillRule="evenodd" clipRule="evenodd" d="M17 14.6666L24 21.6666H10L17 14.6666Z" fill="url(#paint1_linear_180_277)"/>
<rect x="15" y="10" width="4" height="4" rx="2" fill="url(#paint2_linear_180_277)"/>
<path fillRule="evenodd" clipRule="evenodd" d="M12 17C12 14.2386 14.2386 12 17 12V12C19.7614 12 22 14.2386 22 17V20H12V17Z" fill="url(#paint3_linear_180_277)"/>
</g>
<defs>
<filter id="filter0_d_180_277" x="0" y="0" width="34" height="34" filterUnits="userSpaceOnUse" color-interpolation-filters="sRGB">
<feFlood flood-opacity="0" result="BackgroundImageFix"/>
<feColorMatrix in="SourceAlpha" type="matrix" values="0 0 0 0 0 0 0 0 0 0 0 0 0 0 0 0 0 0 127 0" result="hardAlpha"/>
<feOffset/>
<feGaussianBlur stdDeviation="1"/>
<feColorMatrix type="matrix" values="0 0 0 0 0.733333 0 0 0 0 0.733333 0 0 0 0 0.733333 0 0 0 0.5 0"/>
<feBlend mode="normal" in2="BackgroundImageFix" result="effect1_dropShadow_180_277"/>
<feBlend mode="normal" in="SourceGraphic" in2="effect1_dropShadow_180_277" result="shape"/>
</filter>
<linearGradient id="paint0_linear_180_277" x1="14.2415" y1="18.4848" x2="14.2415" y2="24" gradientUnits="userSpaceOnUse">
<stop offset="0.000316723" stopColor="#393F50"/>
<stop offset="1"/>
</linearGradient>
<linearGradient id="paint1_linear_180_277" x1="10" y1="14.6666" x2="10" y2="21.6666" gradientUnits="userSpaceOnUse">
<stop offset="0.000316723" stopColor="#393F50"/>
<stop offset="1"/>
</linearGradient>
<linearGradient id="paint2_linear_180_277" x1="15" y1="10" x2="15" y2="14" gradientUnits="userSpaceOnUse">
<stop offset="0.000316723" stopColor="#393F50"/>
<stop offset="1"/>
</linearGradient>
<linearGradient id="paint3_linear_180_277" x1="12" y1="12" x2="12" y2="20" gradientUnits="userSpaceOnUse">
<stop offset="0.000316723" stopColor="#393F50"/>
<stop offset="1"/>
</linearGradient>
</defs>
</svg>
